<?xml version="1.0" standalone="no"?> <!DOCTYPE svg PUBLIC "-//W3C//DTD SVG 20010904//EN" "http://www.w3.org/TR/2001/REC-SVG-20010904/DTD/svg10.dtd"> <svg version="1.0" xmlns="http://www.w3.org/2000/svg" width="250.000000pt" height="286.000000pt" viewBox="0 0 250.000000 286.000000" preserveAspectRatio="xMidYMid meet"> <g transform="translate(0.000000,286.000000) scale(0.100000,-0.100000)" fill="#00d150" stroke="none"> <path d="M1400 2429 c-8 -5 -41 -9 -74 -9 -32 0 -86 -4 -120 -10 -33 -5 -95 -14 -135 -20 -41 -6 -81 -16 -88 -21 -7 -6 -33 -11 -58 -11 -25 -1 -48 -5 -51 -10 -3 -4 -17 -8 -32 -8 -15 0 -41 -9 -58 -19 -18 -11 -44 -21 -58 -23 -32 -4 -35 -21 -5 -28 17 -4 10 -9 -33 -23 -30 -9 -71 -17 -92 -17 -23 0 -39 -5 -42 -14 -3 -8 -11 -13 -19 -10 -7 3 -15 -2 -18 -10 -4 -10 -13 -13 -23 -9 -12 4 -15 3 -10 -6 9 -14 -20 -40 -45 -41 -12 0 -19 -13 -24 -47 -6 -44 -8 -46 -19 -25 -13 25 -26 20 -26 -10 0 -10 -6 -18 -14 -18 -8 0 -19 -13 -24 -29 -9 -25 -8 -29 4 -24 8 3 14 0 14 -6 0 -6 -3 -11 -7 -11 -9 0 -33 -47 -27 -53 2 -2 5 -118 7 -259 2 -140 7 -260 11 -266 4 -7 4 -21 1 -33 -4 -12 0 -30 10 -45 9 -14 14 -32 11 -39 -3 -8 -1 -17 4 -20 14 -8 13 -132 -1 -140 -6 -4 -8 -13 -5 -20 2 -7 -8 -28 -24 -47 -16 -19 -28 -43 -27 -54 1 -12 -5 -20 -18 -22 -12 -2 -27 -19 -39 -45 -11 -23 -22 -46 -24 -51 -8 -16 58 34 115 88 l54 51 0 490 c-1 270 2 495 7 501 16 25 177 123 303 186 109 54 158 72 264 96 227 52 358 60 580 33 89 -11 263 -46 272 -54 5 -5 33 16 33 25 0 2 -12 4 -26 4 -32 2 -43 12 -24 24 11 7 7 10 -15 10 -23 0 -27 3 -15 10 12 8 11 10 -5 10 -12 0 -25 4 -30 9 -12 11 -135 44 -142 38 -2 -3 -29 1 -59 8 -53 12 -54 12 -74 -14 l-19 -26 -7 33 c-8 38 -15 44 -34 31z"/> <path d="M2133 2307 c-3 -5 -21 -7 -41 -5 -20 3 -52 -1 -71 -8 -20 -7 -30 -13 -23 -14 19 0 14 -28 -5 -33 -56 -15 -84 -19 -141 -18 -40 1 -68 -4 -76 -12 -23 -23 -36 -55 -36 -91 0 -32 -3 -36 -25 -36 -14 0 -33 4 -43 9 -84 44 -350 65 -514 40 -186 -28 -418 -113 -540 -197 l-41 -28 -2 -270 c-4 -430 -2 -401 -17 -386 -10 10 -21 3 -59 -38 -30 -33 -52 -48 -62 -44 -12 4 -16 -6 -19 -53 -2 -32 -3 -60 -2 -64 2 -3 97 89 213 204 l210 209 -5 42 c-9 62 23 114 93 154 70 39 187 -22 200 -104 5 -30 13 -39 52 -58 25 -12 66 -35 90 -50 43 -27 45 -28 77 -12 19 8 46 13 61 10 25 -4 37 5 103 78 41 45 170 178 285 296 116 118 211 217 213 222 2 5 -7 11 -20 15 -39 12 -58 36 -58 73 0 34 28 71 54 73 48 2 123 11 187 20 73 12 76 11 102 -11 31 -27 33 -42 16 -205 -10 -91 -15 -113 -33 -127 -33 -27 -64 -22 -103 17 -32 32 -63 45 -63 28 -1 -12 -59 -74 -308 -332 l-227 -233 0 -57 c0 -63 -26 -111 -74 -136 -26 -13 -27 -17 -23 -69 2 -30 1 -63 -2 -73 -13 -32 -28 12 -24 70 3 49 2 52 -22 53 -81 2 -134 47 -164 137 -3 9 -13 17 -23 17 -10 0 -29 9 -43 20 -14 11 -29 20 -33 20 -5 0 -23 10 -39 22 -27 18 -35 20 -62 10 -18 -7 -46 -12 -62 -12 -25 0 -58 -29 -214 -185 -101 -101 -182 -187 -179 -189 3 -3 35 -3 72 1 48 4 67 10 67 20 0 13 84 103 140 149 14 11 34 32 46 45 34 39 68 64 89 66 11 1 34 5 51 8 21 5 34 2 43 -9 8 -9 19 -16 25 -16 6 0 23 -11 37 -24 14 -13 35 -29 47 -35 14 -7 22 -21 22 -38 0 -20 4 -24 19 -20 25 6 35 -17 19 -43 -13 -21 -54 -29 -184 -35 -93 -5 -146 -16 -170 -36 -8 -6 -22 -9 -33 -6 -22 5 -49 -8 -37 -20 9 -9 909 -15 969 -6 39 5 47 28 10 28 -11 1 -27 5 -34 10 -47 34 -89 47 -117 37 -18 -6 -35 -6 -46 0 -11 6 -22 6 -31 -2 -19 -16 -53 -4 -37 12 7 7 12 19 12 28 -1 13 -3 12 -14 -2 -14 -18 -26 -14 -26 9 0 7 7 13 15 13 8 0 15 9 15 19 0 10 7 22 16 25 9 4 14 13 10 21 -3 8 -2 15 3 15 4 0 27 37 50 83 57 112 67 128 74 120 8 -7 47 31 47 46 0 5 20 26 45 47 25 20 48 47 51 59 4 16 11 21 23 18 10 -2 24 2 32 9 8 8 31 26 51 42 28 21 39 25 42 15 18 -53 7 -536 -12 -548 -5 -3 -11 -19 -14 -36 -3 -16 -9 -38 -13 -47 -5 -13 -3 -18 9 -18 9 0 16 -4 16 -9 0 -14 -27 -21 -80 -21 -42 0 -51 -4 -69 -29 -12 -16 -21 -32 -21 -35 0 -3 -24 -39 -54 -80 -96 -130 -169 -182 -384 -277 -48 -21 -56 -22 -90 -10 -89 32 -203 95 -272 151 -66 54 -190 192 -190 213 0 14 -19 7 -29 -12 -7 -13 -7 -29 0 -50 9 -24 8 -35 -2 -48 -12 -14 -11 -15 11 -8 23 7 23 7 6 -10 -15 -15 -22 -16 -37 -7 -10 7 -31 12 -45 12 -25 0 -26 -2 -13 -17 8 -10 21 -30 28 -45 23 -45 69 -95 146 -158 40 -33 76 -60 80 -60 3 0 25 -13 48 -29 42 -28 181 -97 247 -122 19 -7 37 -16 41 -21 3 -4 23 1 44 12 22 11 45 20 52 20 7 0 21 4 31 9 9 5 56 28 104 50 231 109 417 313 499 549 39 113 49 197 49 430 0 234 1 240 49 295 33 36 79 37 115 1 l26 -27 0 -204 c0 -190 -5 -254 -31 -408 -30 -170 -110 -340 -233 -490 -23 -27 -48 -58 -56 -68 -8 -10 -46 -44 -85 -75 -38 -31 -73 -61 -76 -66 -15 -19 -293 -166 -316 -166 -6 0 -16 -6 -22 -14 -7 -8 -20 -12 -30 -9 -10 3 -22 0 -25 -6 -4 -6 -16 -11 -27 -11 -10 0 -28 -5 -39 -12 -15 -9 -24 -9 -44 0 -14 7 -36 16 -48 21 -104 41 -248 111 -295 143 -53 36 -90 50 -98 38 -4 -6 -26 -10 -51 -10 -24 0 -44 -4 -44 -10 0 -5 11 -10 25 -10 14 0 25 -4 25 -9 0 -5 26 -19 58 -32 31 -12 71 -32 87 -44 17 -12 46 -28 65 -35 19 -7 53 -23 75 -36 72 -41 163 -64 247 -64 79 0 79 0 89 30 13 34 24 39 32 11 5 -22 39 -19 69 6 10 9 25 12 37 8 15 -5 21 -2 21 9 0 9 8 16 19 16 10 0 21 7 25 15 3 8 18 15 34 15 17 0 38 10 52 25 13 14 32 25 42 25 22 0 108 56 108 71 0 5 -15 13 -32 16 -28 6 -21 9 47 18 46 6 79 15 78 21 -1 6 25 37 58 70 32 32 59 62 59 67 0 5 18 31 40 57 22 26 40 53 40 59 0 7 11 24 25 39 14 15 25 37 25 49 0 13 5 23 10 23 6 0 10 6 10 13 0 7 15 44 33 82 41 86 53 135 32 135 -22 0 -18 18 5 25 13 4 20 15 20 31 0 14 6 27 13 30 9 3 13 40 15 133 1 71 5 139 10 152 4 13 6 80 3 147 -3 68 -2 126 2 129 4 3 -4 16 -18 29 -20 19 -25 31 -21 49 5 18 3 23 -7 20 -7 -3 -20 8 -30 24 -22 37 -23 91 -2 91 8 0 15 9 15 20 0 11 7 23 15 26 22 9 55 72 55 107 0 18 5 52 11 76 6 29 6 48 0 54 -5 5 -7 22 -4 37 3 15 0 31 -6 34 -6 4 -11 16 -11 27 0 13 -7 19 -23 19 -13 0 -32 9 -41 19 -17 18 -17 20 1 31 16 10 15 11 -9 7 -16 -2 -29 1 -32 9 -5 14 -115 24 -123 11z m-303 -211 c0 -8 10 -22 22 -30 12 -9 18 -19 14 -23 -5 -5 -11 -2 -13 5 -5 14 -33 16 -33 2 0 -5 5 -10 10 -10 6 0 10 -7 10 -15 0 -8 -9 -15 -20 -15 -12 0 -20 -7 -20 -16 0 -10 6 -14 15 -10 22 8 18 -4 -9 -29 -14 -13 -28 -19 -33 -14 -5 5 -17 -7 -28 -27 -10 -19 -24 -33 -31 -30 -7 3 -10 -2 -7 -15 4 -14 -18 -41 -83 -104 -49 -47 -94 -85 -101 -85 -17 0 -39 -37 -48 -80 -14 -64 -45 -88 -45 -33 0 29 -5 29 -42 -2 -36 -30 -72 -32 -116 -5 -18 11 -39 20 -46 20 -8 0 -26 16 -40 35 -15 19 -40 42 -56 50 -17 9 -33 27 -36 41 -5 18 -9 22 -15 13 -6 -11 -11 -10 -26 3 -20 17 -108 24 -118 8 -3 -6 -17 -7 -31 -4 -20 5 -23 3 -18 -10 6 -14 2 -16 -22 -10 -28 6 -28 6 -9 -9 20 -16 12 -22 -22 -18 -7 1 -13 -5 -13 -13 0 -8 -6 -19 -13 -23 -18 -11 -57 -81 -57 -102 0 -23 -55 -75 -73 -68 -18 7 -25 78 -22 228 2 68 8 126 15 140 18 34 42 60 65 70 11 5 27 13 35 19 8 5 33 16 55 25 22 9 48 21 57 26 10 5 31 9 48 9 16 0 30 5 30 10 0 6 10 10 23 10 13 0 27 4 33 9 5 5 49 16 98 26 83 16 147 19 268 11 39 -2 49 1 54 16 4 15 9 17 20 7 8 -6 14 -17 14 -23 0 -7 14 -11 35 -10 19 1 62 -1 96 -5 81 -10 137 3 180 39 38 33 49 36 49 16z m-368 -1601 c3 -3 1 -25 -5 -48 l-11 -42 -7 34 c-10 46 3 76 23 56z"/> <path d="M512 1349 c-36 -32 -39 -41 -17 -59 19 -16 34 -5 17 12 -16 16 -15 28 1 28 12 0 42 38 35 45 -2 2 -18 -10 -36 -26z"/> <path d="M537 943 c-15 -21 -47 -56 -72 -77 -33 -30 -45 -47 -45 -68 0 -15 5 -28 10 -28 6 0 10 4 10 9 0 5 8 11 18 15 25 8 50 26 88 64 18 17 40 32 49 32 8 0 15 5 15 10 0 13 32 45 55 53 25 10 18 14 -46 21 l-56 7 -26 -38z"/> <path d="M790 935 c0 -8 5 -15 10 -15 6 0 10 7 10 15 0 8 -4 15 -10 15 -5 0 -10 -7 -10 -15z"/> <path d="M365 757 c-11 -20 -23 -37 -27 -37 -5 0 -8 -4 -8 -10 0 -5 11 -10 25 -10 27 0 40 28 33 71 -3 21 -5 19 -23 -14z"/> <path d="M654 770 c-23 -9 -64 -60 -64 -80 0 -7 -7 -10 -15 -6 -12 4 -14 -4 -8 -57 8 -80 59 -177 109 -206 36 -22 45 -41 17 -41 -10 0 -13 -3 -8 -9 13 -11 175 -25 175 -14 0 4 -22 23 -48 40 -59 40 -232 215 -232 235 0 7 18 32 41 53 80 78 92 109 33 85z"/> <path d="M300 685 c0 -8 5 -15 10 -15 6 0 10 7 10 15 0 8 -4 15 -10 15 -5 0 -10 -7 -10 -15z"/> </g> </svg>